<svg width="34" height="28" viewBox="0 0 34 28" fill="none" xmlns="http://www.w3.org/2000/svg">
<path fill-rule="evenodd" clip-rule="evenodd" d="M31.9919 13.9972L20.9768 25.546V2.44836L31.9919 13.9972ZM33.4391 12.6168C34.1761 13.3895 34.1761 14.6049 33.4391 15.3776L22.424 26.9264C21.1784 28.2324 18.9768 27.3508 18.9768 25.546V2.44836C18.9768 0.643654 21.1784 -0.237956 22.424 1.06799L33.4391 12.6168ZM2 14.0035L13.0151 2.45464L13.0151 25.5523L2 14.0035ZM0.552737 15.3839C-0.184246 14.6112 -0.184246 13.3958 0.552738 12.6231L11.5678 1.07427C12.8134 -0.231674 15.0151 0.649933 15.0151 2.45464L15.0151 25.5523C15.0151 27.357 12.8134 28.2386 11.5678 26.9327L0.552737 15.3839Z" fill="url(#paint0_linear)"/>
<defs>
<linearGradient id="paint0_linear" x1="3.03499" y1="2.38091" x2="23.7472" y2="31.5229" gradientUnits="userSpaceOnUse">
<stop stop-color="#236EFF"/>
<stop offset="1" stop-color="#71E5FF"/>
</linearGradient>
</defs>
</svg>
