<svg width="116" height="51" viewBox="0 0 116 51" fill="none" xmlns="http://www.w3.org/2000/svg">
<g clip-path="url(#clip0)">
<rect x="5" y="6.5" width="106" height="5" rx="2" fill="#C4C4C4"/>
<rect x="5" y="6.5" width="106" height="5" rx="2" fill="url(#paint0_linear)"/>
<rect x="5" y="17.5" width="91" height="5" rx="2" fill="#C4C4C4"/>
<rect x="5" y="17.5" width="91" height="5" rx="2" fill="url(#paint1_linear)"/>
<rect x="5" y="17.5" width="91" height="5" rx="2" fill="url(#paint2_linear)"/>
<rect x="5" y="28.5" width="44" height="5" rx="2" fill="#C4C4C4"/>
<rect x="5" y="28.5" width="44" height="5" rx="2" fill="url(#paint3_linear)"/>
<rect x="5" y="28.5" width="44" height="5" rx="2" fill="url(#paint4_linear)"/>
<rect x="5" y="39.5" width="73" height="5" rx="2" fill="#C4C4C4"/>
<rect x="5" y="39.5" width="73" height="5" rx="2" fill="url(#paint5_linear)"/>
</g>
<defs>
<linearGradient id="paint0_linear" x1="58" y1="6.5" x2="58" y2="11.5" gradientUnits="userSpaceOnUse">
<stop stop-color="#7AA7FF"/>
<stop offset="1" stop-color="#3A7DFF"/>
</linearGradient>
<linearGradient id="paint1_linear" x1="50.5" y1="17.5" x2="50.5" y2="22.5" gradientUnits="userSpaceOnUse">
<stop stop-color="#7AA7FF"/>
<stop offset="1" stop-color="#3A7DFF"/>
</linearGradient>
<linearGradient id="paint2_linear" x1="50.5" y1="17.5" x2="50.5" y2="22.5" gradientUnits="userSpaceOnUse">
<stop stop-color="#FFDF8E"/>
<stop offset="1" stop-color="#FBC435"/>
</linearGradient>
<linearGradient id="paint3_linear" x1="27" y1="28.5" x2="27" y2="33.5" gradientUnits="userSpaceOnUse">
<stop stop-color="#7AA7FF"/>
<stop offset="1" stop-color="#3A7DFF"/>
</linearGradient>
<linearGradient id="paint4_linear" x1="27" y1="28.5" x2="27" y2="33.5" gradientUnits="userSpaceOnUse">
<stop stop-color="#FD88FF"/>
<stop offset="1" stop-color="#FB34FF"/>
</linearGradient>
<linearGradient id="paint5_linear" x1="41.5" y1="39.5" x2="41.5" y2="44.5" gradientUnits="userSpaceOnUse">
<stop stop-color="#7AA7FF"/>
<stop offset="1" stop-color="#3A7DFF"/>
</linearGradient>
<clipPath id="clip0">
<rect width="116" height="50" fill="white" transform="translate(0 0.5)"/>
</clipPath>
</defs>
</svg>
